<svg width="40" height="28" viewBox="0 0 40 28" fill="none" xmlns="http://www.w3.org/2000/svg">
<path d="M14.7926 7.648C15.9553 7.648 16.926 7.78667 17.7046 8.064C18.4833 8.34133 19.102 8.72 19.5606 9.2C20.03 9.66933 20.3606 10.2133 20.5526 10.832C20.7553 11.4507 20.8566 12.1013 20.8566 12.784C20.8566 13.4667 20.7446 14.1227 20.5206 14.752C20.3073 15.3813 19.9606 15.9413 19.4806 16.432C19.0113 16.912 18.3873 17.296 17.6086 17.584C16.8406 17.8613 15.902 18 14.7926 18H8.87263V7.648H14.7926ZM11.0006 16.176H14.7446C15.5126 16.176 16.1473 16.0853 16.6486 15.904C17.1606 15.712 17.566 15.456 17.8646 15.136C18.1633 14.816 18.3766 14.4533 18.5046 14.048C18.6326 13.6427 18.6966 13.2213 18.6966 12.784C18.6966 12.3467 18.6326 11.9307 18.5046 11.536C18.3766 11.1413 18.1633 10.7893 17.8646 10.48C17.566 10.1707 17.1606 9.92533 16.6486 9.744C16.1473 9.56267 15.5126 9.472 14.7446 9.472H11.0006V16.176ZM25.0631 13.68V16.224H33.0471V18H22.9351V7.648H33.0311V9.424H25.0631V12H31.5911V13.68H25.0631Z" fill="black"/>
</svg>
